<svg width="1280" height="832" viewBox="0 0 1280 832" fill="none" xmlns="http://www.w3.org/2000/svg">
<mask id="mask0_471_1594" style="mask-type:alpha" maskUnits="userSpaceOnUse" x="0" y="0" width="1280" height="832">
<rect width="1280" height="832" fill="#808080"/>
</mask>
<g mask="url(#mask0_471_1594)">
<mask id="mask1_471_1594" style="mask-type:alpha" maskUnits="userSpaceOnUse" x="-203" y="-21" width="1686" height="876">
<rect x="-203" y="-21" width="1686" height="875.93" fill="#F1F1F1" fill-opacity="0.15"/>
</mask>
<g mask="url(#mask1_471_1594)">
<mask id="mask2_471_1594" style="mask-type:luminance" maskUnits="userSpaceOnUse" x="-243" y="-64" width="884" height="506">
<path d="M640.351 -63.15H-242.516V441.345H640.351V-63.15Z" fill="white"/>
</mask>
<g mask="url(#mask2_471_1594)">
<path d="M707.261 507.477H-309.428V-129.281H707.261L707.261 507.477ZM-308.114 506.163H705.948V-127.968H-308.114V506.163Z" fill="#F1F1F1" fill-opacity="0.15"/>
<path d="M706.603 410.846H-308.771V412.16H706.603V410.846Z" fill="#F1F1F1" fill-opacity="0.15"/>
<path d="M706.603 379.074H-308.771V380.388H706.603V379.074Z" fill="#F1F1F1" fill-opacity="0.15"/>
<path d="M706.603 347.302H-308.771V348.616H706.603V347.302Z" fill="#F1F1F1" fill-opacity="0.15"/>
<path d="M706.603 315.529H-308.771V316.843H706.603V315.529Z" fill="#F1F1F1" fill-opacity="0.15"/>
<path d="M706.603 283.758H-308.771V285.071H706.603V283.758Z" fill="#F1F1F1" fill-opacity="0.15"/>
<path d="M706.603 251.986H-308.771V253.299H706.603V251.986Z" fill="#F1F1F1" fill-opacity="0.15"/>
<path d="M706.603 220.214H-308.771V221.527H706.603V220.214Z" fill="#F1F1F1" fill-opacity="0.15"/>
<path d="M706.603 188.44H-308.771V189.754H706.603V188.44Z" fill="#F1F1F1" fill-opacity="0.15"/>
<path d="M706.603 156.669H-308.771V157.983H706.603V156.669Z" fill="#F1F1F1" fill-opacity="0.15"/>
<path d="M706.603 124.896H-308.771V126.21H706.603V124.896Z" fill="#F1F1F1" fill-opacity="0.15"/>
<path d="M706.603 93.1238H-308.771V94.4376H706.603V93.1238Z" fill="#F1F1F1" fill-opacity="0.15"/>
<path d="M706.603 61.3518H-308.771V62.6656H706.603V61.3518Z" fill="#F1F1F1" fill-opacity="0.15"/>
<path d="M706.603 29.5798H-308.771V30.8936H706.603V29.5798Z" fill="#F1F1F1" fill-opacity="0.15"/>
<path d="M614.954 -128.625H613.641V506.82H614.954V-128.625Z" fill="#F1F1F1" fill-opacity="0.15"/>
<path d="M584.185 -128.625H582.871V506.82H584.185V-128.625Z" fill="#F1F1F1" fill-opacity="0.15"/>
<path d="M553.415 -128.625H552.102V506.82H553.415V-128.625Z" fill="#F1F1F1" fill-opacity="0.15"/>
<path d="M522.648 -128.625H521.334V506.82H522.648V-128.625Z" fill="#F1F1F1" fill-opacity="0.15"/>
<path d="M491.878 -128.625H490.564V506.82H491.878V-128.625Z" fill="#F1F1F1" fill-opacity="0.15"/>
<path d="M461.109 -128.625H459.795V506.82H461.109V-128.625Z" fill="#F1F1F1" fill-opacity="0.15"/>
<path d="M430.341 -128.625H429.027V506.82H430.341V-128.625Z" fill="#F1F1F1" fill-opacity="0.15"/>
<path d="M399.572 -128.625H398.258V506.82H399.572V-128.625Z" fill="#F1F1F1" fill-opacity="0.15"/>
<path d="M368.804 -128.625H367.49V506.82H368.804V-128.625Z" fill="#F1F1F1" fill-opacity="0.15"/>
<path d="M338.033 -128.625H336.719V506.82H338.033V-128.625Z" fill="#F1F1F1" fill-opacity="0.15"/>
<path d="M307.265 -128.624H305.951V506.82H307.265V-128.624Z" fill="#F1F1F1" fill-opacity="0.15"/>
<path d="M276.495 -128.625H275.182V506.82H276.495V-128.625Z" fill="#F1F1F1" fill-opacity="0.15"/>
<path d="M245.726 -128.625H244.412V506.82H245.726V-128.625Z" fill="#F1F1F1" fill-opacity="0.15"/>
<path d="M214.958 -128.625H213.645V506.82H214.958V-128.625Z" fill="#F1F1F1" fill-opacity="0.15"/>
<path d="M184.189 -128.625H182.875V506.82H184.189V-128.625Z" fill="#F1F1F1" fill-opacity="0.15"/>
<path d="M153.421 -128.625H152.107V506.82H153.421V-128.625Z" fill="#F1F1F1" fill-opacity="0.15"/>
<path d="M122.652 -128.625H121.338V506.82H122.652V-128.625Z" fill="#F1F1F1" fill-opacity="0.15"/>
<path d="M91.8822 -128.625H90.5684V506.82H91.8822V-128.625Z" fill="#F1F1F1" fill-opacity="0.15"/>
<path d="M61.1126 -128.625H59.7988V506.82H61.1126V-128.625Z" fill="#F1F1F1" fill-opacity="0.15"/>
<path d="M30.345 -128.625H29.0312V506.82H30.345V-128.625Z" fill="#F1F1F1" fill-opacity="0.15"/>
</g>
<mask id="mask3_471_1594" style="mask-type:luminance" maskUnits="userSpaceOnUse" x="-243" y="412" width="884" height="505">
<path d="M640.351 412.355H-242.516V916.85H640.351V412.355Z" fill="white"/>
</mask>
<g mask="url(#mask3_471_1594)">
<path d="M707.261 982.982H-309.428V346.223H707.261L707.261 982.982ZM-308.114 981.668H705.948V347.537H-308.114V981.668Z" fill="#F1F1F1" fill-opacity="0.15"/>
<path d="M706.603 822.807H-308.771V824.121H706.603V822.807Z" fill="#F1F1F1" fill-opacity="0.15"/>
<path d="M706.603 791.034H-308.771V792.348H706.603V791.034Z" fill="#F1F1F1" fill-opacity="0.15"/>
<path d="M706.603 759.262H-308.771V760.576H706.603V759.262Z" fill="#F1F1F1" fill-opacity="0.15"/>
<path d="M706.603 727.49H-308.771V728.804H706.603V727.49Z" fill="#F1F1F1" fill-opacity="0.15"/>
<path d="M706.603 695.718H-308.771V697.032H706.603V695.718Z" fill="#F1F1F1" fill-opacity="0.15"/>
<path d="M706.603 663.945H-308.771V665.259H706.603V663.945Z" fill="#F1F1F1" fill-opacity="0.15"/>
<path d="M706.603 632.174H-308.771V633.488H706.603V632.174Z" fill="#F1F1F1" fill-opacity="0.15"/>
<path d="M706.603 600.401H-308.771V601.715H706.603V600.401Z" fill="#F1F1F1" fill-opacity="0.15"/>
<path d="M706.603 568.629H-308.771V569.942H706.603V568.629Z" fill="#F1F1F1" fill-opacity="0.15"/>
<path d="M706.603 536.857H-308.771V538.17H706.603V536.857Z" fill="#F1F1F1" fill-opacity="0.15"/>
<path d="M706.603 505.085H-308.771V506.399H706.603V505.085Z" fill="#F1F1F1" fill-opacity="0.15"/>
<path d="M706.603 473.312H-308.771V474.626H706.603V473.312Z" fill="#F1F1F1" fill-opacity="0.15"/>
<path d="M706.603 441.54H-308.771V442.854H706.603V441.54Z" fill="#F1F1F1" fill-opacity="0.15"/>
<path d="M614.954 346.88H613.641V982.325H614.954V346.88Z" fill="#F1F1F1" fill-opacity="0.15"/>
<path d="M584.185 346.88H582.871V982.325H584.185V346.88Z" fill="#F1F1F1" fill-opacity="0.15"/>
<path d="M553.415 346.88H552.102V982.325H553.415V346.88Z" fill="#F1F1F1" fill-opacity="0.15"/>
<path d="M522.648 346.88H521.334V982.325H522.648V346.88Z" fill="#F1F1F1" fill-opacity="0.15"/>
<path d="M491.878 346.88H490.564V982.325H491.878V346.88Z" fill="#F1F1F1" fill-opacity="0.15"/>
<path d="M461.109 346.88H459.795V982.325H461.109V346.88Z" fill="#F1F1F1" fill-opacity="0.15"/>
<path d="M430.341 346.88H429.027V982.325H430.341V346.88Z" fill="#F1F1F1" fill-opacity="0.15"/>
<path d="M399.572 346.88H398.258V982.325H399.572V346.88Z" fill="#F1F1F1" fill-opacity="0.15"/>
<path d="M368.804 346.88H367.49V982.325H368.804V346.88Z" fill="#F1F1F1" fill-opacity="0.15"/>
<path d="M338.033 346.88H336.719V982.325H338.033V346.88Z" fill="#F1F1F1" fill-opacity="0.15"/>
<path d="M307.265 346.88H305.951V982.325H307.265V346.88Z" fill="#F1F1F1" fill-opacity="0.15"/>
<path d="M276.495 346.88H275.182V982.325H276.495V346.88Z" fill="#F1F1F1" fill-opacity="0.15"/>
<path d="M245.726 346.88H244.412V982.325H245.726V346.88Z" fill="#F1F1F1" fill-opacity="0.15"/>
<path d="M214.958 346.88H213.645V982.325H214.958V346.88Z" fill="#F1F1F1" fill-opacity="0.15"/>
<path d="M184.189 346.88H182.875V982.325H184.189V346.88Z" fill="#F1F1F1" fill-opacity="0.15"/>
<path d="M153.421 346.88H152.107V982.325H153.421V346.88Z" fill="#F1F1F1" fill-opacity="0.15"/>
<path d="M122.652 346.88H121.338V982.325H122.652V346.88Z" fill="#F1F1F1" fill-opacity="0.15"/>
<path d="M91.8822 346.88H90.5684V982.325H91.8822V346.88Z" fill="#F1F1F1" fill-opacity="0.15"/>
<path d="M61.1126 346.88H59.7988V982.325H61.1126V346.88Z" fill="#F1F1F1" fill-opacity="0.15"/>
<path d="M30.345 346.88H29.0312V982.325H30.345V346.88Z" fill="#F1F1F1" fill-opacity="0.15"/>
</g>
<mask id="mask4_471_1594" style="mask-type:luminance" maskUnits="userSpaceOnUse" x="622" y="-64" width="884" height="506">
<path d="M1505.74 -63.15H622.877V441.345H1505.74V-63.15Z" fill="white"/>
</mask>
<g mask="url(#mask4_471_1594)">
<path d="M1572.65 507.477H555.965V-129.281H1572.65L1572.65 507.477ZM557.279 506.163H1571.34V-127.968H557.279V506.163Z" fill="#F1F1F1" fill-opacity="0.15"/>
<path d="M1572 410.846H556.621V412.16H1572V410.846Z" fill="#F1F1F1" fill-opacity="0.15"/>
<path d="M1572 379.074H556.621V380.388H1572V379.074Z" fill="#F1F1F1" fill-opacity="0.15"/>
<path d="M1572 347.302H556.621V348.616H1572V347.302Z" fill="#F1F1F1" fill-opacity="0.15"/>
<path d="M1572 315.529H556.621V316.843H1572V315.529Z" fill="#F1F1F1" fill-opacity="0.15"/>
<path d="M1572 283.758H556.621V285.071H1572V283.758Z" fill="#F1F1F1" fill-opacity="0.15"/>
<path d="M1572 251.986H556.621V253.299H1572V251.986Z" fill="#F1F1F1" fill-opacity="0.15"/>
<path d="M1572 220.214H556.621V221.527H1572V220.214Z" fill="#F1F1F1" fill-opacity="0.15"/>
<path d="M1572 188.44H556.621V189.754H1572V188.44Z" fill="#F1F1F1" fill-opacity="0.15"/>
<path d="M1572 156.669H556.621V157.983H1572V156.669Z" fill="#F1F1F1" fill-opacity="0.15"/>
<path d="M1572 124.896H556.621V126.21H1572V124.896Z" fill="#F1F1F1" fill-opacity="0.15"/>
<path d="M1572 93.1238H556.621V94.4376H1572V93.1238Z" fill="#F1F1F1" fill-opacity="0.15"/>
<path d="M1572 61.3518H556.621V62.6656H1572V61.3518Z" fill="#F1F1F1" fill-opacity="0.15"/>
<path d="M1572 29.5798H556.621V30.8936H1572V29.5798Z" fill="#F1F1F1" fill-opacity="0.15"/>
<path d="M1264.96 -128.625H1263.65V506.82H1264.96V-128.625Z" fill="#F1F1F1" fill-opacity="0.15"/>
<path d="M1234.2 -128.625H1232.88V506.82H1234.2V-128.625Z" fill="#F1F1F1" fill-opacity="0.15"/>
<path d="M1203.43 -128.625H1202.11V506.82H1203.43V-128.625Z" fill="#F1F1F1" fill-opacity="0.15"/>
<path d="M1172.66 -128.625H1171.34V506.82H1172.66V-128.625Z" fill="#F1F1F1" fill-opacity="0.15"/>
<path d="M1141.89 -128.625H1140.57V506.82H1141.89V-128.625Z" fill="#F1F1F1" fill-opacity="0.15"/>
<path d="M1111.12 -128.625H1109.8V506.82H1111.12V-128.625Z" fill="#F1F1F1" fill-opacity="0.15"/>
<path d="M1080.35 -128.625H1079.04V506.82H1080.35V-128.625Z" fill="#F1F1F1" fill-opacity="0.15"/>
<path d="M1049.58 -128.625H1048.27V506.82H1049.58V-128.625Z" fill="#F1F1F1" fill-opacity="0.15"/>
<path d="M1018.81 -128.625H1017.5V506.82H1018.81V-128.625Z" fill="#F1F1F1" fill-opacity="0.15"/>
<path d="M988.044 -128.625H986.73V506.82H988.044V-128.625Z" fill="#F1F1F1" fill-opacity="0.15"/>
<path d="M957.275 -128.625H955.961V506.82H957.275V-128.625Z" fill="#F1F1F1" fill-opacity="0.15"/>
<path d="M926.505 -128.625H925.191V506.82H926.505V-128.625Z" fill="#F1F1F1" fill-opacity="0.15"/>
<path d="M895.738 -128.625H894.424V506.82H895.738V-128.625Z" fill="#F1F1F1" fill-opacity="0.15"/>
<path d="M864.968 -128.625H863.654V506.82H864.968V-128.625Z" fill="#F1F1F1" fill-opacity="0.15"/>
<path d="M834.199 -128.625H832.885V506.82H834.199V-128.625Z" fill="#F1F1F1" fill-opacity="0.15"/>
<path d="M803.431 -128.625H802.117V506.82H803.431V-128.625Z" fill="#F1F1F1" fill-opacity="0.15"/>
<path d="M772.661 -128.625H771.348V506.82H772.661V-128.625Z" fill="#F1F1F1" fill-opacity="0.15"/>
<path d="M741.892 -128.625H740.578V506.82H741.892V-128.625Z" fill="#F1F1F1" fill-opacity="0.15"/>
<path d="M711.124 -128.625H709.811V506.82H711.124V-128.625Z" fill="#F1F1F1" fill-opacity="0.15"/>
<path d="M680.355 -128.625H679.041V506.82H680.355V-128.625Z" fill="#F1F1F1" fill-opacity="0.15"/>
<path d="M649.585 -128.625H648.271V506.82H649.585V-128.625Z" fill="#F1F1F1" fill-opacity="0.15"/>
</g>
<mask id="mask5_471_1594" style="mask-type:luminance" maskUnits="userSpaceOnUse" x="622" y="412" width="884" height="505">
<path d="M1505.74 412.355H622.877V916.85H1505.74V412.355Z" fill="white"/>
</mask>
<g mask="url(#mask5_471_1594)">
<path d="M1572.65 982.982H555.965V346.223H1572.65L1572.65 982.982ZM557.279 981.668H1571.34V347.537H557.279V981.668Z" fill="#F1F1F1" fill-opacity="0.15"/>
<path d="M1572 822.807H556.621V824.121H1572V822.807Z" fill="#F1F1F1" fill-opacity="0.15"/>
<path d="M1572 791.034H556.621V792.348H1572V791.034Z" fill="#F1F1F1" fill-opacity="0.15"/>
<path d="M1572 759.262H556.621V760.576H1572V759.262Z" fill="#F1F1F1" fill-opacity="0.15"/>
<path d="M1572 727.49H556.621V728.804H1572V727.49Z" fill="#F1F1F1" fill-opacity="0.15"/>
<path d="M1572 695.718H556.621V697.032H1572V695.718Z" fill="#F1F1F1" fill-opacity="0.15"/>
<path d="M1572 663.945H556.621V665.259H1572V663.945Z" fill="#F1F1F1" fill-opacity="0.15"/>
<path d="M1572 632.174H556.621V633.488H1572V632.174Z" fill="#F1F1F1" fill-opacity="0.15"/>
<path d="M1572 600.401H556.621V601.715H1572V600.401Z" fill="#F1F1F1" fill-opacity="0.15"/>
<path d="M1572 568.629H556.621V569.942H1572V568.629Z" fill="#F1F1F1" fill-opacity="0.15"/>
<path d="M1572 536.857H556.621V538.17H1572V536.857Z" fill="#F1F1F1" fill-opacity="0.15"/>
<path d="M1572 505.085H556.621V506.399H1572V505.085Z" fill="#F1F1F1" fill-opacity="0.15"/>
<path d="M1572 473.312H556.621V474.626H1572V473.312Z" fill="#F1F1F1" fill-opacity="0.15"/>
<path d="M1572 441.54H556.621V442.854H1572V441.54Z" fill="#F1F1F1" fill-opacity="0.15"/>
<path d="M1264.96 346.88H1263.65V982.325H1264.96V346.88Z" fill="#F1F1F1" fill-opacity="0.15"/>
<path d="M1234.2 346.88H1232.88V982.325H1234.2V346.88Z" fill="#F1F1F1" fill-opacity="0.15"/>
<path d="M1203.43 346.88H1202.11V982.325H1203.43V346.88Z" fill="#F1F1F1" fill-opacity="0.15"/>
<path d="M1172.66 346.88H1171.34V982.325H1172.66V346.88Z" fill="#F1F1F1" fill-opacity="0.15"/>
<path d="M1141.89 346.88H1140.57V982.325H1141.89V346.88Z" fill="#F1F1F1" fill-opacity="0.15"/>
<path d="M1111.12 346.88H1109.8V982.325H1111.12V346.88Z" fill="#F1F1F1" fill-opacity="0.15"/>
<path d="M1080.35 346.88H1079.04V982.325H1080.35V346.88Z" fill="#F1F1F1" fill-opacity="0.15"/>
<path d="M1049.58 346.88H1048.27V982.325H1049.58V346.88Z" fill="#F1F1F1" fill-opacity="0.15"/>
<path d="M1018.81 346.88H1017.5V982.325H1018.81V346.88Z" fill="#F1F1F1" fill-opacity="0.15"/>
<path d="M988.044 346.88H986.73V982.325H988.044V346.88Z" fill="#F1F1F1" fill-opacity="0.15"/>
<path d="M957.275 346.88H955.961V982.325H957.275V346.88Z" fill="#F1F1F1" fill-opacity="0.15"/>
<path d="M926.505 346.88H925.191V982.325H926.505V346.88Z" fill="#F1F1F1" fill-opacity="0.15"/>
<path d="M895.738 346.88H894.424V982.325H895.738V346.88Z" fill="#F1F1F1" fill-opacity="0.15"/>
<path d="M864.968 346.88H863.654V982.325H864.968V346.88Z" fill="#F1F1F1" fill-opacity="0.15"/>
<path d="M834.199 346.88H832.885V982.325H834.199V346.88Z" fill="#F1F1F1" fill-opacity="0.15"/>
<path d="M803.431 346.88H802.117V982.325H803.431V346.88Z" fill="#F1F1F1" fill-opacity="0.15"/>
<path d="M772.661 346.88H771.348V982.325H772.661V346.88Z" fill="#F1F1F1" fill-opacity="0.15"/>
<path d="M741.892 346.88H740.578V982.325H741.892V346.88Z" fill="#F1F1F1" fill-opacity="0.15"/>
<path d="M711.124 346.88H709.811V982.325H711.124V346.88Z" fill="#F1F1F1" fill-opacity="0.15"/>
<path d="M680.355 346.88H679.041V982.325H680.355V346.88Z" fill="#F1F1F1" fill-opacity="0.15"/>
<path d="M649.585 346.88H648.271V982.325H649.585V346.88Z" fill="#F1F1F1" fill-opacity="0.15"/>
</g>
</g>
</g>
</svg>
